<svg width="186" height="181" viewBox="0 0 186 181" fill="none" xmlns="http://www.w3.org/2000/svg">
<circle cx="95.5" cy="91" r="70.5" fill="url(#paint0_linear_1768_5181)"/>
<circle cx="178.467" cy="28" r="7.5" fill="#AA70FF"/>
<circle cx="20.0332" cy="10.5" r="10" fill="#AA70FF"/>
<circle cx="10.0332" cy="133.5" r="5" fill="#AA70FF"/>
<circle cx="165.533" cy="161" r="2.5" fill="#AA70FF"/>
<path fill-rule="evenodd" clip-rule="evenodd" d="M94.8319 115.371C95.1041 115.513 95.4085 115.586 95.713 115.583C96.0174 115.581 96.3193 115.506 96.594 115.362L105.365 110.673C107.852 109.347 109.8 107.864 111.32 106.138C114.624 102.378 116.428 97.5781 116.396 92.6291L116.292 76.3041C116.282 74.4238 115.047 72.746 113.22 72.1361L96.9034 66.6615C95.9208 66.3288 94.8443 66.3361 93.8791 66.6784L77.6239 72.3482C75.8074 72.9822 74.5947 74.6721 74.6046 76.5548L74.7085 92.8677C74.7407 97.824 76.6067 102.602 79.9652 106.324C81.4996 108.026 83.4647 109.487 85.9792 110.791L94.8319 115.371ZM92.51 96.1845C92.8763 96.5365 93.3514 96.7101 93.8266 96.7052C94.3018 96.7028 94.7745 96.5244 95.1358 96.1677L104.721 86.7179C105.441 86.0068 105.434 84.8641 104.706 84.1626C103.976 83.4611 102.801 83.4659 102.08 84.1771L93.7994 92.3395L90.4088 89.0803C89.6787 88.3788 88.5056 88.3861 87.7829 89.0972C87.0627 89.8084 87.0702 90.951 87.8002 91.6525L92.51 96.1845Z" fill="white"/>
<circle cx="106.533" cy="5" r="2.5" fill="#AA70FF"/>
<circle cx="62.5332" cy="177" r="3.5" fill="#AA70FF"/>
<circle cx="122.033" cy="171.5" r="1" fill="#AA70FF"/>
<circle cx="170.533" cy="111" r="2.5" fill="#AA70FF"/>
<circle cx="1.0332" cy="75.5" r="1" fill="#AA70FF"/>
<defs>
<linearGradient id="paint0_linear_1768_5181" x1="166" y1="161.5" x2="-1.77734" y2="112.855" gradientUnits="userSpaceOnUse">
<stop stop-color="#7210FF"/>
<stop offset="1" stop-color="#9D59FF"/>
</linearGradient>
</defs>
</svg>
