<svg width="28" height="28" viewBox="0 0 28 28" fill="none" xmlns="http://www.w3.org/2000/svg">
<path d="M5.59357 8.23281C5.59357 6.77564 6.77423 5.59497 8.2314 5.59381H9.4319C10.1284 5.59381 10.7957 5.31731 11.2904 4.82731L12.1292 3.98731C13.1571 2.95364 14.8277 2.94897 15.8614 3.97681L15.8626 3.97797L15.8731 3.98731L16.7131 4.82731C17.2077 5.31847 17.8751 5.59381 18.5716 5.59381H19.7709C21.2281 5.59381 22.4099 6.77447 22.4099 8.23281V9.43097C22.4099 10.1275 22.6852 10.796 23.1764 11.2906L24.0164 12.1306C25.0501 13.1585 25.0559 14.8291 24.0281 15.8628L24.0269 15.864L24.0164 15.8745L23.1764 16.7145C22.6852 17.208 22.4099 17.8753 22.4099 18.5718V19.7723C22.4099 21.2295 21.2292 22.4101 19.7721 22.4101H19.7709H18.5692C17.8727 22.4101 17.2042 22.6866 16.7107 23.1778L15.8707 24.0166C14.8441 25.0503 13.1746 25.0561 12.1409 24.0306C12.1397 24.0295 12.1386 24.0283 12.1374 24.0271L12.1269 24.0166L11.2881 23.1778C10.7946 22.6866 10.1261 22.4113 9.42957 22.4101H8.2314C6.77423 22.4101 5.59357 21.2295 5.59357 19.7723V18.5695C5.59357 17.873 5.31707 17.2056 4.8259 16.7121L3.98707 15.8721C2.9534 14.8455 2.94757 13.176 3.97423 12.1423C3.97423 12.1411 3.9754 12.14 3.97657 12.1388L3.98707 12.1283L4.8259 11.2883C5.31707 10.7936 5.59357 10.1263 5.59357 9.42864V8.23281" stroke="#212121" stroke-width="1.5" stroke-linecap="round" stroke-linejoin="round"/>
<path d="M11.0029 17.0006L16.9996 11.0039" stroke="#212121" stroke-width="1.5" stroke-linecap="round" stroke-linejoin="round"/>
<path d="M16.9111 16.9173H16.9216" stroke="#212121" stroke-width="2" stroke-linecap="round" stroke-linejoin="round"/>
<path d="M11.0781 11.0833H11.0886" stroke="#212121" stroke-width="2" stroke-linecap="round" stroke-linejoin="round"/>
</svg>
