<svg width="12" height="12" viewBox="0 0 12 12" fill="none" xmlns="http://www.w3.org/2000/svg">
<path opacity="0.4" d="M5.86618 11.3025C4.49635 10.4564 3.22297 9.45872 2.06933 8.32776C1.2549 7.52026 0.632914 6.53428 0.250896 5.44516C-0.431684 3.32114 0.362881 0.893687 2.58126 0.173038C3.75217 -0.194681 5.02563 0.0310527 6.00483 0.779901C6.98438 0.0318902 8.25743 -0.19377 9.42839 0.173038C11.6468 0.893687 12.4467 3.32114 11.7641 5.44516C11.3852 6.53325 10.7669 7.51914 9.95632 8.32776C8.80163 9.45749 7.52839 10.455 6.15947 11.3025L6.01016 11.4L5.86618 11.3025Z" fill="url(#paint0_linear_1189_29276)"/>
<path d="M6.00654 11.3998L5.86559 11.3022C4.49408 10.4562 3.21892 9.45857 2.06341 8.32752C1.24512 7.52114 0.619431 6.53507 0.234312 5.44492C-0.442935 3.3209 0.35163 0.89345 2.57001 0.1728C3.74092 -0.194919 5.03117 0.030988 6.00654 0.786106V11.3998Z" fill="url(#paint1_linear_1189_29276)"/>
<path d="M9.73866 4.20032C9.61813 4.19256 9.50589 4.13232 9.42823 4.03372C9.35057 3.93512 9.3143 3.80682 9.32794 3.67888C9.34098 3.25746 9.1012 2.87388 8.73143 2.72464C8.49695 2.66064 8.35495 2.4067 8.41361 2.15627C8.46927 1.90987 8.7 1.75666 8.93189 1.81212C8.96118 1.81698 8.98936 1.82759 9.01501 1.84341C9.75644 2.12873 10.2365 2.89663 10.1983 3.73623C10.1971 3.86349 10.1474 3.98477 10.0608 4.07227C9.97413 4.15976 9.85787 4.20598 9.73866 4.20032Z" fill="url(#paint2_linear_1189_29276)"/>
<defs>
<linearGradient id="paint0_linear_1189_29276" x1="12.0006" y1="11.4" x2="-2.14689" y2="7.08689" gradientUnits="userSpaceOnUse">
<stop stop-color="#FB9400"/>
<stop offset="1" stop-color="#FFAB38"/>
</linearGradient>
<linearGradient id="paint1_linear_1189_29276" x1="6.00654" y1="11.3998" x2="-1.56484" y2="10.2431" gradientUnits="userSpaceOnUse">
<stop stop-color="#FB9400"/>
<stop offset="1" stop-color="#FFAB38"/>
</linearGradient>
<linearGradient id="paint2_linear_1189_29276" x1="10.2004" y1="4.20078" x2="7.98333" y2="3.71867" gradientUnits="userSpaceOnUse">
<stop stop-color="#FB9400"/>
<stop offset="1" stop-color="#FFAB38"/>
</linearGradient>
</defs>
</svg>
