<svg width="32" height="32" viewBox="0 0 32 32" fill="none" xmlns="http://www.w3.org/2000/svg">
<rect width="32" height="32" rx="12" fill="url(#paint0_linear_1511_1754)"/>
<g clip-path="url(#clip0_1511_1754)">
<path d="M19.4774 11.5778C19.4774 12.0277 19.4425 12.4703 19.3726 12.8984C19.2469 12.8549 19.1142 12.8113 18.9885 12.7678C18.4298 12.5937 17.8571 12.4703 17.2634 12.3905C17.2006 12.3832 17.1307 12.376 17.0679 12.3687C17.0399 12.3687 17.019 12.3615 16.991 12.3615V17.3973C16.9631 17.4263 16.9352 17.4481 16.9072 17.4698C16.6279 17.7311 16.3206 17.9633 16.0063 18.181H15.9993C15.678 17.9633 15.3777 17.7238 15.0913 17.4626C15.0564 17.4336 15.0215 17.4045 14.9936 17.3683V12.3615C14.9028 12.3687 14.805 12.3832 14.7142 12.3905C14.2742 12.4485 13.8412 12.5356 13.4221 12.6444C13.2755 12.6807 13.1358 12.7243 12.9961 12.7678C12.8774 12.8041 12.7586 12.8476 12.6399 12.8839C12.612 12.7025 12.584 12.5211 12.5701 12.3324C12.5561 12.151 12.5421 11.9696 12.5352 11.7882C12.5352 11.7156 12.5352 11.6431 12.5352 11.5633C12.5352 11.2803 12.5491 10.9973 12.5771 10.7215C12.7167 10.6708 12.8564 10.6272 12.9961 10.5764C13.5479 10.4023 14.1275 10.2717 14.7142 10.1991C14.805 10.1846 14.8958 10.1773 14.9936 10.1701C15.3218 10.1483 15.6571 10.1338 15.9993 10.1338C16.3345 10.1338 16.6628 10.1483 16.984 10.1846C17.005 10.1846 17.019 10.1846 17.0399 10.1918C17.1098 10.1991 17.1866 10.2064 17.2564 10.2136C17.8501 10.2862 18.4228 10.4168 18.9815 10.5909C19.1352 10.6345 19.2818 10.6925 19.4355 10.7433C19.4634 10.9973 19.4774 11.2512 19.4774 11.5125C19.4774 11.5342 19.4774 11.556 19.4774 11.5778Z" fill="white"/>
<path d="M14.7144 14.5014V16.6928L14.2115 16.5187L13.1639 16.1413L12.9893 16.0833L12.9125 16.0543L10.5519 15.2053C10.51 15.0529 10.4681 14.9005 10.4331 14.7481C10.3842 14.5305 10.3354 14.32 10.3004 14.0951C10.2306 13.696 10.1817 13.2824 10.1607 12.8688C10.1538 12.7962 10.1538 12.7237 10.1468 12.6511C10.1328 12.4987 10.1328 12.3391 10.1328 12.1722C10.1328 12.1214 10.1328 12.0706 10.1328 12.0271C10.3074 11.9037 10.482 11.7803 10.6706 11.6715C11.1455 11.374 11.6414 11.12 12.1582 10.9023C12.1442 11.0983 12.1442 11.2869 12.1442 11.4828C12.1442 11.6352 12.1442 11.7876 12.1512 11.9327C12.1512 12.0198 12.1582 12.1141 12.1652 12.2012C12.1861 12.4842 12.2141 12.7672 12.249 13.0429C12.2769 13.2461 12.3119 13.4565 12.3538 13.6597L12.8427 13.8339L12.9055 13.8556L12.9823 13.8847L14.7144 14.5014Z" fill="white"/>
<path d="M21.8658 12.1726C21.8658 12.4048 21.8589 12.6297 21.8449 12.8547C21.817 13.2756 21.7681 13.6892 21.6982 14.0955C21.6354 14.4656 21.5516 14.8356 21.4538 15.1912C21.4258 15.2928 21.3979 15.3944 21.363 15.496L20.9858 15.3581L19.3516 14.7776C19.4633 14.4075 19.5611 14.0375 19.6379 13.6529C19.6798 13.4497 19.7147 13.2538 19.7427 13.0434C19.8125 12.5354 19.8474 12.013 19.8474 11.4833C19.8474 11.447 19.8474 11.4107 19.8474 11.3817C19.8474 11.222 19.8405 11.0551 19.8335 10.8955C20.036 10.9826 20.2385 11.0697 20.4411 11.1712C20.9439 11.418 21.4189 11.7082 21.8728 12.0275C21.8658 12.0783 21.8658 12.1291 21.8658 12.1726Z" fill="white"/>
<path d="M20.9024 16.7153C20.7348 17.0854 20.5532 17.4409 20.3507 17.782C20.197 18.0432 20.0364 18.2972 19.8618 18.5366C19.6662 18.8124 19.4567 19.0808 19.2332 19.3421C19.2193 19.3566 19.2123 19.3711 19.1983 19.3856C19.1285 19.4654 19.0586 19.5452 18.9888 19.6251C18.5488 20.104 18.0599 20.5393 17.5431 20.9239C17.4872 20.9675 17.4313 21.0037 17.3754 21.04C17.3405 21.069 17.2986 21.0908 17.2637 21.1198C17.1729 21.1851 17.0821 21.2432 16.9913 21.3012C16.677 21.5044 16.3418 21.6931 16.0066 21.8672C15.8808 21.8019 15.7551 21.7366 15.6294 21.6641C15.4129 21.548 15.2034 21.4173 14.9939 21.2867C14.9031 21.2287 14.8053 21.1634 14.7145 21.0981C14.6307 21.04 14.5469 20.9747 14.4631 20.9167C14.1627 20.6917 13.8764 20.4523 13.597 20.1983C13.3875 20.0024 13.185 19.8065 12.9964 19.596C12.9335 19.5235 12.8707 19.4582 12.8078 19.3856C12.5704 19.1099 12.3469 18.8269 12.1373 18.5294C11.7393 17.9634 11.39 17.3539 11.0967 16.708C11.0478 16.5992 11.0059 16.4904 10.957 16.3888L11.4739 16.5774L12.9894 17.1217L13.8624 17.4337C13.9462 17.5643 14.037 17.6949 14.1208 17.8255C14.3024 18.0867 14.498 18.3407 14.7075 18.5874C14.7704 18.66 14.8402 18.7398 14.9031 18.8124C14.931 18.8414 14.9589 18.8704 14.9869 18.8994C15.1754 19.1099 15.378 19.3058 15.5805 19.5017C15.7132 19.6251 15.8529 19.7484 15.9926 19.8645C16.2999 19.6105 16.5932 19.3348 16.8656 19.0446C16.9075 19.001 16.9424 18.9575 16.9843 18.9139C17.0193 18.8777 17.0542 18.8414 17.0821 18.8051C17.131 18.7543 17.1799 18.6963 17.2218 18.6382C17.2288 18.6237 17.2427 18.6164 17.2497 18.6019C17.4593 18.3552 17.6618 18.094 17.8504 17.8328L17.2567 17.6078V15.4092L18.2973 15.7792L18.884 15.9897L18.9748 16.026L19.0377 16.0477L20.9024 16.7153Z" fill="white"/>
</g>
<defs>
<linearGradient id="paint0_linear_1511_1754" x1="32" y1="32" x2="-6.07713" y2="20.9599" gradientUnits="userSpaceOnUse">
<stop stop-color="#7210FF"/>
<stop offset="1" stop-color="#9D59FF"/>
</linearGradient>
<clipPath id="clip0_1511_1754">
<rect width="11.7333" height="11.7333" fill="white" transform="translate(10.1328 10.1338)"/>
</clipPath>
</defs>
</svg>
