<svg width="28" height="28" viewBox="0 0 28 28" fill="none" xmlns="http://www.w3.org/2000/svg">
<path fill-rule="evenodd" clip-rule="evenodd" d="M15.2883 4.87382L17.4203 9.13303C17.6292 9.55117 18.0325 9.8411 18.5002 9.9082L23.2696 10.5947C24.4479 10.7648 24.9168 12.193 24.064 13.0112L20.6152 16.3252C20.2763 16.651 20.122 17.1195 20.2022 17.5796L21.0161 22.2581C21.2165 23.4155 19.9847 24.2984 18.9315 23.7509L14.6687 21.5404C14.2509 21.3236 13.7504 21.3236 13.3313 21.5404L9.0685 23.7509C8.01527 24.2984 6.78346 23.4155 6.98512 22.2581L7.79782 17.5796C7.878 17.1195 7.72372 16.651 7.38479 16.3252L3.93596 13.0112C3.08317 12.193 3.55208 10.7648 4.73044 10.5947L9.49976 9.9082C9.96746 9.8411 10.372 9.55117 10.5809 9.13303L12.7117 4.87382C13.2389 3.8207 14.7611 3.8207 15.2883 4.87382Z" stroke="#212121" stroke-width="1.5" stroke-linecap="round" stroke-linejoin="round"/>
</svg>
