<svg width="28" height="28" viewBox="0 0 28 28" fill="none" xmlns="http://www.w3.org/2000/svg">
<path d="M13.9945 19.4579V16.498" stroke="#212121" stroke-width="1.5" stroke-linecap="round" stroke-linejoin="round"/>
<path fill-rule="evenodd" clip-rule="evenodd" d="M21.2213 6.21875C23.193 6.21875 24.7797 7.81708 24.7797 9.78875V13.8021C21.9097 15.4821 18.118 16.4971 13.988 16.4971C9.85801 16.4971 6.07801 15.4821 3.20801 13.8021V9.77708C3.20801 7.80542 4.80634 6.21875 6.77801 6.21875H21.2213Z" stroke="#212121" stroke-width="1.5" stroke-linecap="round" stroke-linejoin="round"/>
<path d="M18.0778 6.21432V5.78732C18.0778 4.36398 16.9228 3.20898 15.4995 3.20898H12.4895C11.0661 3.20898 9.91113 4.36398 9.91113 5.78732V6.21432" stroke="#212121" stroke-width="1.5" stroke-linecap="round" stroke-linejoin="round"/>
<path d="M3.23633 18.0645L3.45683 20.9916C3.60616 22.9645 5.24999 24.4893 7.22749 24.4893H20.7597C22.7372 24.4893 24.381 22.9645 24.5303 20.9916L24.7508 18.0645" stroke="#212121" stroke-width="1.5" stroke-linecap="round" stroke-linejoin="round"/>
</svg>