<svg width="16" height="15" viewBox="0 0 16 15" fill="none" xmlns="http://www.w3.org/2000/svg">
<g id="Category">
<path id="Stroke 1" fill-rule="evenodd" clip-rule="evenodd" d="M1.25 3.375C1.25 1.40609 1.27108 0.75 3.875 0.75C6.47892 0.75 6.5 1.40609 6.5 3.375C6.5 5.34391 6.5083 6 3.875 6C1.2417 6 1.25 5.34391 1.25 3.375Z" stroke="#212121" stroke-width="1.5" stroke-linecap="round" stroke-linejoin="round"/>
<path id="Stroke 3" fill-rule="evenodd" clip-rule="evenodd" d="M9.5 3.375C9.5 1.40609 9.52108 0.75 12.125 0.75C14.7289 0.75 14.75 1.40609 14.75 3.375C14.75 5.34391 14.7583 6 12.125 6C9.4917 6 9.5 5.34391 9.5 3.375Z" stroke="#212121" stroke-width="1.5" stroke-linecap="round" stroke-linejoin="round"/>
<path id="Stroke 5" fill-rule="evenodd" clip-rule="evenodd" d="M1.25 11.625C1.25 9.65609 1.27108 9 3.875 9C6.47892 9 6.5 9.65609 6.5 11.625C6.5 13.5939 6.5083 14.25 3.875 14.25C1.2417 14.25 1.25 13.5939 1.25 11.625Z" stroke="#212121" stroke-width="1.5" stroke-linecap="round" stroke-linejoin="round"/>
<path id="Stroke 7" fill-rule="evenodd" clip-rule="evenodd" d="M9.5 11.625C9.5 9.65609 9.52108 9 12.125 9C14.7289 9 14.75 9.65609 14.75 11.625C14.75 13.5939 14.7583 14.25 12.125 14.25C9.4917 14.25 9.5 13.5939 9.5 11.625Z" stroke="#212121" stroke-width="1.5" stroke-linecap="round" stroke-linejoin="round"/>
</g>
</svg>
