<svg width="16" height="11" viewBox="0 0 16 11" fill="none" xmlns="http://www.w3.org/2000/svg">
<g id="3 User">
<path id="Fill 1" d="M7.96621 7.24219C5.66622 7.24219 3.72559 7.60281 3.72559 8.99462C3.72559 10.387 5.67876 10.735 7.96621 10.735C10.2662 10.735 12.2068 10.3743 12.2068 8.98252C12.2068 7.59014 10.2537 7.24219 7.96621 7.24219Z" fill="url(#paint0_linear_7677_8758)"/>
<path id="Fill 3" opacity="0.4" d="M7.96635 5.91629C9.52375 5.91629 10.7725 4.71113 10.7725 3.20814C10.7725 1.70458 9.52375 0.5 7.96635 0.5C6.40894 0.5 5.16016 1.70458 5.16016 3.20814C5.16016 4.71113 6.40894 5.91629 7.96635 5.91629Z" fill="url(#paint1_linear_7677_8758)"/>
<path id="Fill 6" opacity="0.4" d="M14.059 3.8379C14.462 2.31705 13.2806 0.951172 11.7764 0.951172C11.6128 0.951172 11.4564 0.968454 11.3036 0.997834C11.2833 1.00244 11.2606 1.01224 11.2487 1.02952C11.2349 1.05141 11.2451 1.08079 11.26 1.0998C11.7119 1.7116 11.9716 2.45646 11.9716 3.25606C11.9716 4.02225 11.7334 4.73658 11.3155 5.32937C11.2725 5.39043 11.3107 5.47281 11.3866 5.48548C11.4916 5.50334 11.5991 5.51256 11.7089 5.51544C12.8043 5.54309 13.7874 4.86274 14.059 3.8379Z" fill="url(#paint2_linear_7677_8758)"/>
<path id="Fill 8" d="M15.2063 7.41939C15.0057 7.00692 14.5216 6.72407 13.7856 6.58523C13.4381 6.50343 12.498 6.38821 11.6235 6.40377C11.6103 6.4055 11.6032 6.41414 11.602 6.4199C11.6002 6.42796 11.6038 6.44179 11.6211 6.45043C12.0252 6.64342 13.5874 7.48276 13.391 9.25305C13.3826 9.32967 13.4465 9.39592 13.5259 9.3844C13.9103 9.3314 14.8994 9.12631 15.2063 8.48744C15.3758 8.14986 15.3758 7.75755 15.2063 7.41939Z" fill="url(#paint3_linear_7677_8758)"/>
<path id="Fill 11" opacity="0.4" d="M4.69704 0.999787C4.54482 0.969831 4.38783 0.953125 4.22427 0.953125C2.71999 0.953125 1.53866 2.31901 1.94219 3.83985C2.2132 4.8647 3.19635 5.54504 4.29172 5.51739C4.40156 5.51451 4.50961 5.50472 4.61407 5.48744C4.68988 5.47476 4.72808 5.39238 4.6851 5.33132C4.26725 4.73796 4.02907 4.0242 4.02907 3.25801C4.02907 2.45784 4.28934 1.71297 4.74122 1.10175C4.75554 1.08274 4.76629 1.05336 4.75196 1.03147C4.74002 1.01361 4.71794 1.0044 4.69704 0.999787Z" fill="url(#paint4_linear_7677_8758)"/>
<path id="Fill 13" d="M2.2147 6.58476C1.47867 6.72359 0.995157 7.00645 0.794587 7.41892C0.624461 7.75708 0.624461 8.14939 0.794587 8.48754C1.10141 9.12584 2.09053 9.3315 2.47496 9.38392C2.55435 9.39544 2.61763 9.32977 2.60927 9.25258C2.41288 7.48286 3.97506 6.64352 4.37978 6.45053C4.39649 6.44132 4.40008 6.42807 4.39828 6.41942C4.39709 6.41366 4.39052 6.40502 4.37739 6.40387C3.50228 6.38774 2.56271 6.50296 2.2147 6.58476Z" fill="url(#paint5_linear_7677_8758)"/>
</g>
<defs>
<linearGradient id="paint0_linear_7677_8758" x1="12.2068" y1="10.735" x2="4.89223" y2="5.58513" gradientUnits="userSpaceOnUse">
<stop stop-color="#FB9400"/>
<stop offset="1" stop-color="#FFAB38"/>
</linearGradient>
<linearGradient id="paint1_linear_7677_8758" x1="10.7725" y1="5.91629" x2="4.13227" y2="3.9213" gradientUnits="userSpaceOnUse">
<stop stop-color="#FB9400"/>
<stop offset="1" stop-color="#FFAB38"/>
</linearGradient>
<linearGradient id="paint2_linear_7677_8758" x1="14.1387" y1="5.51625" x2="10.5247" y2="4.85139" gradientUnits="userSpaceOnUse">
<stop stop-color="#FB9400"/>
<stop offset="1" stop-color="#FFAB38"/>
</linearGradient>
<linearGradient id="paint3_linear_7677_8758" x1="15.3334" y1="9.38571" x2="11.0792" y2="7.84275" gradientUnits="userSpaceOnUse">
<stop stop-color="#FB9400"/>
<stop offset="1" stop-color="#FFAB38"/>
</linearGradient>
<linearGradient id="paint4_linear_7677_8758" x1="4.75873" y1="5.51821" x2="1.14481" y2="4.85339" gradientUnits="userSpaceOnUse">
<stop stop-color="#FB9400"/>
<stop offset="1" stop-color="#FFAB38"/>
</linearGradient>
<linearGradient id="paint5_linear_7677_8758" x1="4.3987" y1="9.38524" x2="0.144716" y2="7.84221" gradientUnits="userSpaceOnUse">
<stop stop-color="#FB9400"/>
<stop offset="1" stop-color="#FFAB38"/>
</linearGradient>
</defs>
</svg>
